<svg width="240" height="40" viewBox="0 0 240 40" fill="none" xmlns="http://www.w3.org/2000/svg">
<g clip-path="url(#clip0_2_260)">
<path d="M58.8339 25.5681C58.1694 26.2516 57.3442 26.7577 56.4337 27.0401C55.3164 27.4225 54.1422 27.6119 52.9613 27.6001C51.0251 27.6001 49.4783 27.0081 48.3209 25.8241C47.1634 24.6401 46.5447 22.9921 46.4647 20.8801V19.6001C46.4332 18.288 46.6957 16.9856 47.2328 15.7881C47.7009 14.7497 48.4702 13.876 49.441 13.2801C50.4443 12.68 51.5965 12.375 52.7653 12.4001C54.6108 12.4001 56.0416 12.8214 57.0577 13.6641C58.0738 14.5067 58.6659 15.7641 58.8339 17.4361H55.4016C55.3542 16.7702 55.0704 16.1432 54.6015 15.6681C54.1103 15.2878 53.4972 15.1001 52.8773 15.1401C52.4662 15.1323 52.0604 15.2337 51.7012 15.434C51.3421 15.6343 51.0425 15.9262 50.8331 16.2801C50.3451 17.0374 50.0984 18.1201 50.093 19.5281V20.4201C50.093 21.8947 50.3451 23.0041 50.8491 23.7481C51.3532 24.4921 52.1466 24.8627 53.2294 24.8601C53.9731 24.9178 54.7118 24.6968 55.3016 24.2401V21.9441H52.8213V19.4961H58.8339V25.5681Z" fill="white"/>
<path d="M66.7943 27.396H63.2341V12.5961H66.7903L66.7943 27.396Z" fill="white"/>
<path d="M83.4564 25.5681C82.7919 26.2516 81.9667 26.7576 81.0562 27.0401C79.9389 27.4225 78.7647 27.6119 77.5839 27.6001C75.6477 27.6001 74.1009 27.0081 72.9434 25.8241C71.786 24.6401 71.1646 22.9921 71.0792 20.8801V19.6001C71.049 18.2877 71.3128 16.9852 71.8513 15.788C72.3143 14.7538 73.0746 13.8807 74.0355 13.28C75.039 12.6804 76.1911 12.3754 77.3598 12.4C79.2027 12.4 80.6335 12.8214 81.6523 13.664C82.671 14.5067 83.2644 15.764 83.4324 17.436H80.0001C79.9527 16.7702 79.669 16.1432 79.2 15.668C78.7089 15.2878 78.0957 15.1 77.4759 15.14C77.06 15.1272 76.6484 15.2263 76.2839 15.4268C75.9194 15.6273 75.6154 15.922 75.4037 16.28C74.9156 17.0374 74.6689 18.12 74.6636 19.528V20.4201C74.6636 21.8947 74.9156 23.0041 75.4197 23.7481C75.9237 24.4921 76.7238 24.8627 77.8199 24.8601C78.5636 24.9178 79.3023 24.6968 79.8921 24.2401V21.9441H77.4118V19.496H83.4564V25.5681Z" fill="white"/>
<path d="M96.0057 24.6361H91.1212L90.2691 27.396H86.4607L91.8812 12.5961H95.2376L100.698 27.396H96.8737L96.0057 24.6361ZM91.9732 21.8841H95.1736L93.5734 16.7561L91.9732 21.8841Z" fill="white"/>
<path d="M108.039 23.376L110.983 12.612H114.963L109.991 27.412H106.091L101.154 12.612H105.106L108.039 23.376Z" fill="white"/>
<path d="M127.273 21.1241H121.672V24.6561H128.293V27.396H118.1V12.5961H128.305V15.3481H121.664V18.4681H127.265L127.273 21.1241Z" fill="white"/>
<path d="M137.31 22.1681H135.381V27.396H131.817V12.5961H137.642C139.394 12.5961 140.765 12.9854 141.754 13.7641C142.245 14.156 142.636 14.6596 142.893 15.2329C143.151 15.8061 143.268 16.4326 143.234 17.0601C143.268 17.9536 143.052 18.8388 142.61 19.6161C142.134 20.3431 141.456 20.9147 140.658 21.2601L143.742 27.228V27.38H139.922L137.31 22.1681ZM135.381 19.4281H137.642C137.92 19.4485 138.199 19.4114 138.462 19.3192C138.725 19.227 138.966 19.0816 139.17 18.8921C139.504 18.465 139.686 17.9383 139.686 17.3961C139.686 16.8538 139.504 16.3272 139.17 15.9001C138.968 15.7088 138.729 15.5616 138.467 15.4679C138.205 15.3742 137.927 15.3362 137.65 15.3561H135.393L135.381 19.4281Z" fill="white"/>
<path d="M154.691 23.4678C154.699 23.2382 154.653 23.01 154.556 22.8015C154.46 22.593 154.315 22.4102 154.135 22.2678C153.538 21.8679 152.882 21.5629 152.191 21.3639C151.414 21.1149 150.655 20.8128 149.919 20.4599C148.001 19.5212 147.043 18.2292 147.043 16.5839C147.027 15.7958 147.279 15.0258 147.759 14.3999C148.287 13.7347 148.989 13.2281 149.787 12.9359C150.726 12.5763 151.725 12.3998 152.731 12.4159C153.713 12.3989 154.687 12.5926 155.587 12.9839C156.383 13.3171 157.067 13.8726 157.555 14.5839C158.024 15.2955 158.268 16.1318 158.255 16.9839H154.699C154.715 16.7244 154.673 16.4646 154.578 16.2228C154.483 15.981 154.336 15.7629 154.147 15.5839C153.73 15.2339 153.195 15.0552 152.651 15.0839C152.115 15.0526 151.584 15.2019 151.143 15.5079C150.97 15.6269 150.829 15.7865 150.732 15.9727C150.635 16.1588 150.585 16.366 150.587 16.5759C150.598 16.7844 150.66 16.9871 150.767 17.1667C150.873 17.3463 151.021 17.4977 151.199 17.6079C151.859 18.0346 152.581 18.3571 153.339 18.5639C154.214 18.8284 155.058 19.1837 155.859 19.6239C157.459 20.5439 158.259 21.8132 158.259 23.4318C158.283 24.0203 158.162 24.6055 157.907 25.1362C157.651 25.6669 157.27 26.1269 156.795 26.4758C155.823 27.2158 154.483 27.5838 152.795 27.5838C151.676 27.5991 150.567 27.3798 149.539 26.9398C148.65 26.5873 147.884 25.9824 147.335 25.1998C146.837 24.4311 146.581 23.5313 146.599 22.6158H150.171C150.144 22.9348 150.184 23.256 150.291 23.558C150.397 23.8601 150.566 24.1361 150.787 24.3678C151.195 24.7438 151.862 24.9318 152.787 24.9318C153.283 24.9519 153.773 24.8116 154.183 24.5318C154.348 24.4091 154.48 24.2481 154.569 24.0627C154.657 23.8773 154.699 23.6731 154.691 23.4678V23.4678Z" fill="white"/>
<path d="M171.333 21.1241H165.733V24.6561H172.357V27.396H162.16V12.5961H172.369V15.3481H165.725V18.4681H171.325L171.333 21.1241Z" fill="white"/>
<path d="M188.678 24.6561H194.883V27.396H185.115V12.5961H188.678V24.6561Z" fill="white"/>
<path d="M206.661 24.6361H201.776L200.924 27.396H197.116L202.54 12.5961H205.889L211.353 27.396H207.525L206.661 24.6361ZM202.632 21.8841H205.809L204.208 16.7561L202.632 21.8841Z" fill="white"/>
<path d="M214.109 27.3961V12.5961H219.422C221.323 12.5961 222.77 12.9454 223.762 13.6441C224.25 13.9831 224.644 14.4417 224.904 14.9761C225.165 15.5104 225.284 16.1026 225.25 16.6961C225.27 17.3871 225.086 18.0686 224.722 18.6561C224.348 19.2153 223.802 19.6367 223.166 19.8561C223.873 20.0176 224.501 20.4208 224.942 20.9961C225.368 21.5845 225.586 22.298 225.562 23.0241C225.562 24.4721 225.106 25.5601 224.186 26.2881C223.266 27.0161 221.91 27.3881 220.11 27.4001L214.109 27.3961ZM217.674 18.7761H219.534C220.121 18.823 220.706 18.6723 221.198 18.3481C221.369 18.194 221.502 18.003 221.588 17.7895C221.674 17.576 221.71 17.3457 221.694 17.1161C221.717 16.8651 221.681 16.6121 221.587 16.3779C221.494 16.1436 221.347 15.9347 221.158 15.7681C220.636 15.4546 220.028 15.3146 219.422 15.3681H217.674V18.7761ZM217.674 21.1121V24.6561H220.01C220.541 24.6916 221.066 24.5339 221.49 24.2121C221.665 24.0586 221.803 23.8671 221.893 23.6522C221.983 23.4373 222.023 23.2047 222.01 22.9721C222.01 21.7401 221.397 21.1201 220.17 21.1121H217.674Z" fill="white"/>
<path d="M236.452 23.4681C236.46 23.2389 236.414 23.0111 236.318 22.8027C236.222 22.5944 236.079 22.4113 235.9 22.2681C235.3 21.8691 234.643 21.5642 233.952 21.3641C233.165 21.1091 232.396 20.8004 231.651 20.4401C229.736 19.5015 228.778 18.2095 228.775 16.5641C228.767 15.7814 229.024 15.0191 229.503 14.4001C230.033 13.7358 230.734 13.2295 231.531 12.9361C232.471 12.5765 233.47 12.4 234.476 12.4161C235.459 12.3992 236.434 12.5929 237.336 12.9841C238.131 13.3184 238.812 13.8737 239.3 14.5841C239.769 15.2958 240.013 16.132 240 16.9841H236.452C236.464 16.7267 236.42 16.4696 236.324 16.2307C236.227 15.9918 236.08 15.7767 235.892 15.6001C235.474 15.2501 234.94 15.0714 234.396 15.1001C233.86 15.0688 233.329 15.2181 232.888 15.5241C232.715 15.6431 232.573 15.8027 232.476 15.9889C232.38 16.1751 232.33 16.3822 232.331 16.5921C232.343 16.8007 232.405 17.0033 232.511 17.183C232.618 17.3626 232.766 17.5139 232.943 17.6241C233.604 18.0509 234.325 18.3734 235.084 18.5801C235.959 18.844 236.804 19.1993 237.604 19.6401C239.204 20.5601 240.004 21.8295 240.004 23.4481C240.028 24.0366 239.907 24.6218 239.652 25.1525C239.396 25.6832 239.015 26.1432 238.54 26.4921C237.568 27.2321 236.228 27.6001 234.54 27.6001C233.421 27.6155 232.312 27.3961 231.283 26.9561C230.393 26.598 229.627 25.9877 229.079 25.2001C228.581 24.4314 228.325 23.5316 228.343 22.6161H231.915C231.888 22.9351 231.929 23.2563 232.035 23.5583C232.141 23.8604 232.311 24.1364 232.531 24.3681C232.932 24.7441 233.608 24.9321 234.532 24.9321C235.028 24.9522 235.518 24.8119 235.928 24.5321C236.096 24.4112 236.231 24.2509 236.322 24.0654C236.414 23.8799 236.458 23.6748 236.452 23.4681V23.4681Z" fill="white"/>
<path d="M13.4413 20C13.4413 21.029 13.8501 22.0159 14.5779 22.7436C15.3056 23.4712 16.2926 23.88 17.3217 23.88H26.8826V25.52L17.3217 31.04L7.76076 25.52V14.48L17.3217 8.96L24.9224 13.36C25.539 13.7168 26.242 13.8966 26.9541 13.8796C27.6663 13.8627 28.3599 13.6497 28.9588 13.264L34.6434 10L17.3217 0L0 10V30L17.3217 40L34.6434 30V16.12H17.3217C16.2926 16.12 15.3056 16.5288 14.5779 17.2564C13.8501 17.9841 13.4413 18.971 13.4413 20V20Z" fill="white"/>
</g>
<defs>
<clipPath id="clip0_2_260">
<rect width="240" height="40" fill="white"/>
</clipPath>
</defs>
</svg>
